<svg viewBox="0 0 20.2859 28.5002" xmlns="http://www.w3.org/2000/svg" xmlns:xlink="http://www.w3.org/1999/xlink" width="20.285889" height="28.500244" fill="none" customFrame="#000000">
	<path id="Vector" d="M18.8098 26.4089L18.3224 26.4089C18.3224 26.4037 18.32 26.3985 18.319 26.3936L18.3056 26.334C18.2971 26.2948 18.2879 26.2559 18.2783 26.2174C18.2742 26.1992 18.2697 26.1811 18.2653 26.1629C18.2527 26.1121 18.2393 26.0612 18.2257 26.0103L18.2215 25.9957C18.2065 25.9406 18.1908 25.8858 18.1744 25.8311L18.158 25.7783C18.1467 25.7407 18.1347 25.7034 18.1238 25.6662C18.1173 25.6458 18.1105 25.6257 18.104 25.6056C18.092 25.5696 18.0797 25.5336 18.0671 25.498C18.0606 25.4792 18.0537 25.4601 18.0472 25.4416C18.0313 25.3969 18.0149 25.3525 17.998 25.3084C17.9943 25.299 17.9912 25.29 17.9874 25.2806C17.9676 25.2287 17.9467 25.1772 17.9256 25.1257C17.918 25.1069 17.9102 25.0884 17.9023 25.0699C17.888 25.0375 17.8736 25.0019 17.8589 24.9682L17.8312 24.9057C17.8169 24.8733 17.8022 24.8408 17.7871 24.8084C17.7779 24.7884 17.7683 24.7679 17.7588 24.7478C17.7413 24.7106 17.7246 24.6736 17.7051 24.637C17.6979 24.6231 17.6914 24.6088 17.6842 24.5946C17.66 24.5463 17.635 24.4974 17.6097 24.4507L17.5756 24.3901L17.5274 24.3023L17.4898 24.2375C17.474 24.2103 17.4583 24.183 17.4423 24.1558C17.4296 24.1338 17.4166 24.1118 17.4036 24.091C17.3859 24.0615 17.3695 24.0327 17.35 24.0035L17.3008 23.9245C17.2775 23.8882 17.2543 23.8516 17.2303 23.8156C17.2153 23.7929 17.2003 23.7705 17.1849 23.7482C17.1695 23.7258 17.1528 23.7002 17.1363 23.6766C17.1199 23.6529 17.1022 23.6293 17.0871 23.6059C17.0721 23.5826 17.0557 23.5615 17.0396 23.5411C17.0236 23.5207 17.0054 23.4935 16.988 23.4698L16.9398 23.405C16.9056 23.3619 16.8742 23.3188 16.8407 23.2754L16.7939 23.2161C16.774 23.1912 16.7535 23.1665 16.7334 23.1419L16.6883 23.0875C16.6674 23.0625 16.6462 23.0379 16.625 23.0129L16.5806 22.9617L16.5143 22.8866L16.475 22.8431C16.3933 22.7534 16.3095 22.6649 16.2238 22.5787L16.1862 22.5408L16.1075 22.464L16.0689 22.4271C16.0416 22.4008 16.0142 22.3749 15.9865 22.3493L15.9582 22.3234C15.8615 22.2343 15.762 22.1474 15.6608 22.0641L15.6331 22.0411C15.6019 22.0152 15.5705 21.9896 15.5388 21.9643L15.5074 21.9391C15.4732 21.9131 15.4421 21.8875 15.4089 21.8619L15.3922 21.8493C15.2804 21.7638 15.1659 21.6805 15.0504 21.6004L15.0343 21.5891C14.9977 21.5642 14.9612 21.5395 14.9243 21.5152L14.9 21.4993C14.8624 21.4744 14.8244 21.4501 14.7865 21.4258L14.78 21.4219C14.6542 21.3422 14.5261 21.2658 14.3955 21.1928L14.3904 21.1896C14.349 21.1666 14.3077 21.1442 14.2663 21.1218L14.2482 21.1121C14.0281 20.9944 13.802 20.8864 13.5701 20.7881L13.5557 20.7819C13.4945 20.756 13.433 20.731 13.3708 20.7064L14.5941 20.7064C14.7933 20.7064 14.955 20.489 14.955 20.2204C14.955 19.9517 14.7933 19.7343 14.5941 19.7343L14.2297 19.7343C14.2523 19.6799 14.2772 19.6183 14.3042 19.5489C14.6488 19.3454 15.2551 18.9119 15.8567 18.1154L15.8615 18.1092C15.907 18.0496 15.9518 17.9879 15.9958 17.9242L16.0047 17.9116C16.0484 17.849 16.0922 17.7845 16.1352 17.7171L16.1469 17.6993C16.1674 17.6669 16.1879 17.6345 16.2084 17.6021C16.2084 17.6021 16.2084 17.5995 16.2108 17.5979C16.232 17.5655 16.2528 17.5299 16.2737 17.4952L16.287 17.4728C16.3048 17.443 16.3229 17.4125 16.3403 17.3818C16.3437 17.3763 16.3471 17.3707 16.3502 17.3649C16.3704 17.3299 16.3906 17.2943 16.4104 17.2583L16.424 17.2334C16.4405 17.2035 16.4565 17.1734 16.4726 17.1429C16.4774 17.1345 16.4822 17.1258 16.4866 17.117C16.5057 17.0804 16.5249 17.0435 16.544 17.0059L16.5574 16.9796C16.5724 16.9492 16.5878 16.9181 16.6028 16.887L16.6192 16.8546C16.6377 16.8163 16.6558 16.7774 16.6739 16.7382L16.6852 16.7133C16.7002 16.6809 16.7149 16.6485 16.7296 16.6161L16.747 16.5772C16.7641 16.538 16.7812 16.4984 16.7976 16.4586C16.8007 16.4514 16.8038 16.444 16.8065 16.4369C16.8219 16.4002 16.8369 16.363 16.852 16.3254L16.8691 16.2826C16.8831 16.247 16.8971 16.211 16.9108 16.175L16.921 16.1478C16.9371 16.105 16.9528 16.0613 16.9685 16.0182L16.9849 15.9722C16.9972 15.9378 17.0092 15.9028 17.0212 15.8678C17.0256 15.8549 17.0301 15.8419 17.0342 15.829C17.0492 15.7842 17.0642 15.7386 17.0789 15.6929C17.0837 15.677 17.0888 15.6605 17.0936 15.6456L17.1278 15.5389C17.1322 15.5234 17.137 15.5065 17.1415 15.4926C17.1555 15.4456 17.1695 15.3977 17.1828 15.3494C17.1873 15.3342 17.1914 15.3186 17.1955 15.303C17.2057 15.2658 17.216 15.2285 17.2259 15.1906C17.2303 15.1734 17.2348 15.1563 17.2396 15.1391C17.2522 15.0892 17.2649 15.039 17.2772 14.9881L17.2874 14.9456C17.297 14.9051 17.3066 14.8643 17.3158 14.8231L17.3281 14.7681C17.3397 14.7152 17.3513 14.6624 17.3623 14.6086C17.3647 14.5983 17.3667 14.5876 17.3688 14.5762C17.3783 14.5299 17.3876 14.4829 17.3965 14.4359C17.4002 14.4168 17.4036 14.3977 17.4074 14.3786C17.4163 14.3303 17.4248 14.2813 17.4334 14.2331C17.4351 14.2227 17.4371 14.2127 17.4388 14.2026C17.4484 14.1456 17.4578 14.0881 17.4669 14.0302C17.4699 14.0108 17.473 13.9913 17.4758 13.9716C17.4829 13.9246 17.4898 13.8773 17.4966 13.8293L17.5028 13.7852C17.511 13.7256 17.5188 13.6657 17.5263 13.6047C17.5287 13.5856 17.5308 13.5665 17.5332 13.5471C17.5391 13.4987 17.5446 13.4501 17.5496 13.4013C17.5516 13.3838 17.5537 13.3666 17.5554 13.3491C17.562 13.2864 17.5682 13.2232 17.5738 13.1595C17.5738 13.1417 17.5769 13.1239 17.5783 13.1057C17.5827 13.0545 17.5872 13.003 17.5909 12.9512C17.5909 12.932 17.594 12.9129 17.5954 12.8938C17.6002 12.8277 17.6046 12.7612 17.6087 12.6942C17.6087 12.679 17.6087 12.6618 17.6111 12.6482C17.6142 12.5924 17.6173 12.5364 17.6196 12.48C17.6196 12.4596 17.6196 12.4392 17.6224 12.4188C17.6251 12.3491 17.6279 12.2791 17.6299 12.2081C17.6299 12.1984 17.6299 12.1884 17.6299 12.1783C17.6317 12.1152 17.6331 12.0515 17.634 11.9871C17.634 11.9661 17.634 11.945 17.634 11.924C17.634 11.8548 17.634 11.7853 17.634 11.7153L17.634 11.6991C17.634 11.6245 17.634 11.549 17.634 11.4722L17.634 11.4074C17.634 11.3426 17.6313 11.2746 17.6296 11.2072L17.6296 11.1706C17.6272 11.0928 17.6241 11.014 17.621 10.935C17.621 10.9146 17.619 10.8938 17.6183 10.8734C17.6153 10.8069 17.6119 10.7399 17.608 10.6725C17.608 10.656 17.608 10.6401 17.6053 10.6223C17.6005 10.5413 17.5953 10.4596 17.5896 10.3773L17.5855 10.32C17.5803 10.2513 17.5752 10.1822 17.5694 10.1126C17.5694 10.0925 17.5663 10.0724 17.5646 10.0523C17.5574 9.96805 17.5496 9.88282 17.5414 9.79728C17.5414 9.78108 17.538 9.76487 17.5366 9.74835C17.5294 9.67544 17.5216 9.60188 17.5137 9.52768C17.5113 9.50532 17.5089 9.48328 17.5062 9.46092C17.4966 9.37278 17.4863 9.28432 17.4754 9.19456C17.4754 9.18355 17.4723 9.17253 17.471 9.16216C17.4612 9.0818 17.4508 9.001 17.4399 8.91978C17.4364 8.8958 17.4334 8.87182 17.43 8.84784C17.4172 8.75581 17.4041 8.66303 17.3906 8.56949C16.0235 -0.657233 6.33493 0.840156 6.33493 0.840156L6.64529 2.82264L0.785889 8.691L1.04189 10.957L3.26151 12.2532C3.36046 12.0147 3.4875 11.7877 3.64022 11.5763C5.07234 10.0102 7.8508 8.78076 8.64615 8.52574C8.80543 8.47487 8.89601 8.44927 8.89601 8.44927C5.09148 13.1174 5.5242 18.4654 5.69373 19.7401C5.51736 19.7725 5.38099 19.9744 5.38099 20.2207C5.38099 20.489 5.54265 20.7067 5.74192 20.7067L6.96521 20.7067C4.93072 21.5141 3.31579 23.0518 2.47299 24.9841C2.472 24.9867 2.47086 24.9893 2.46957 24.9918C2.40737 25.1353 2.34949 25.2808 2.29594 25.4283C2.29603 25.4298 2.29603 25.4314 2.29594 25.4329C2.28159 25.473 2.26757 25.5132 2.2539 25.5537C2.24878 25.5683 2.24365 25.5829 2.23886 25.5978C2.22656 25.6341 2.21516 25.6707 2.20468 25.7077C2.19853 25.7264 2.19272 25.7456 2.18691 25.7644C2.17597 25.799 2.16538 25.834 2.15512 25.869L2.13666 25.9338C2.12709 25.9662 2.11753 26.0009 2.10864 26.0346C2.10214 26.0586 2.09599 26.0822 2.08984 26.1062C2.08164 26.1386 2.07309 26.171 2.06523 26.2034C2.05737 26.2358 2.04985 26.2682 2.04233 26.3026C2.03481 26.3369 2.02524 26.3771 2.01704 26.4147L1.52929 26.4147C1.4355 26.4128 1.34224 26.4286 1.25499 26.4612C1.16774 26.4939 1.08824 26.5428 1.02118 26.605C0.954118 26.6672 0.900831 26.7414 0.864453 26.8234C0.828075 26.9054 0.809337 26.9935 0.809337 27.0824C0.809337 27.1713 0.828075 27.2594 0.864453 27.3414C0.900831 27.4233 0.954118 27.4976 1.02118 27.5598C1.08824 27.622 1.16774 27.6709 1.25499 27.7035C1.34224 27.7362 1.4355 27.752 1.52929 27.7501L18.8159 27.7501C18.9097 27.752 19.003 27.7362 19.0902 27.7035C19.1775 27.6709 19.257 27.622 19.324 27.5598C19.3911 27.4976 19.4444 27.4233 19.4808 27.3414C19.5171 27.2594 19.5359 27.1713 19.5359 27.0824C19.5359 26.9935 19.5171 26.9054 19.4808 26.8234C19.4444 26.7414 19.3911 26.6672 19.324 26.605C19.257 26.5428 19.1775 26.4939 19.0902 26.4612C19.003 26.4286 18.9097 26.4128 18.8159 26.4147L18.8098 26.4089Z" fill="rgb(88.7778,85.9147,83.4757)" fill-rule="nonzero" />
	<path id="Vector" d="M19.1088 25.6589L19.151 25.6989C19.2193 25.714 19.2867 25.734 19.3533 25.7589C19.5337 25.8265 19.694 25.9252 19.834 26.0551C19.9771 26.1878 20.0879 26.3425 20.1663 26.5192C20.246 26.6989 20.2859 26.8866 20.2859 27.0824Q20.2859 27.2226 20.2586 27.3573L20.2586 27.3573Q20.2288 27.5047 20.1663 27.6456C20.0879 27.8223 19.9771 27.977 19.834 28.1097C19.694 28.2396 19.5337 28.3383 19.3533 28.4059C19.1753 28.4726 18.9962 28.504 18.8159 28.5001L1.54495 28.4999C1.35428 28.5039 1.16996 28.4726 0.991968 28.4059Q0.84037 28.3491 0.707792 28.2631L0.707765 28.2631Q0.603606 28.1954 0.511188 28.1097Q0.391603 27.9988 0.302129 27.8674L0.302089 27.8674Q0.230994 27.7629 0.178913 27.6456Q0.116467 27.5048 0.0866264 27.3575Q0.059337 27.2227 0.059337 27.0824C0.059337 26.8866 0.0991958 26.6989 0.178913 26.5192Q0.231015 26.4018 0.302143 26.2974L0.302182 26.2973Q0.391639 26.1659 0.511188 26.0551Q0.603607 25.9694 0.707768 25.9017L0.707783 25.9017Q0.840365 25.8156 0.991968 25.7589C1.13826 25.7041 1.28532 25.6731 1.43314 25.666L1.43538 25.6581C1.44755 25.6166 1.45921 25.5782 1.47037 25.5428L1.47336 25.5331C1.4786 25.5161 1.48315 25.5016 1.48701 25.4895C1.49964 25.4457 1.51222 25.4053 1.52476 25.3686C1.5284 25.3572 1.53294 25.3436 1.53839 25.3278L1.53784 25.3188L1.59094 25.1725C1.64858 25.0136 1.71081 24.8569 1.77763 24.7024L1.77766 24.7023L1.78149 24.6934L1.79045 24.6728L1.79107 24.6716Q2.42454 23.2248 3.44796 22.1489L3.448 22.1488Q4.07681 21.4878 4.85283 20.9668Q4.78223 20.8631 4.73409 20.7498L4.73403 20.7496Q4.63099 20.507 4.63099 20.2207Q4.63099 19.9573 4.72008 19.7285Q4.76898 19.603 4.84472 19.4879C4.86259 19.4607 4.88108 19.4347 4.90019 19.4097Q4.70108 17.429 5.06478 15.2441Q5.48496 12.7197 6.60881 10.5618Q6.61718 10.5457 6.62559 10.5297Q6.71882 10.3517 6.81684 10.1763Q6.78012 10.1963 6.74332 10.2166Q5.07678 11.1328 4.22383 12.0497Q4.10649 12.2176 4.01783 12.3995Q3.98394 12.4691 3.95423 12.5406L3.62502 13.334L0.338862 11.415L0.00010705 8.41652L5.84539 2.56228L5.47773 0.213733L6.22038 0.0989585Q6.88438 -0.00366497 7.87319 0.00036329Q9.84117 0.00838053 11.5659 0.526515Q13.6816 1.16213 15.1647 2.49939Q15.4056 2.71663 15.6299 2.95238Q15.7452 3.0736 15.8555 3.19918Q17.6569 5.24986 18.1333 8.46463L18.1729 8.74535L18.1776 8.77937L18.1838 8.82431L18.2129 9.05163C18.2171 9.07637 18.2202 9.10069 18.2223 9.12459L18.2506 9.36986C18.2531 9.38996 18.2561 9.41676 18.2597 9.45027L18.284 9.68649C18.2834 9.67884 18.2829 9.67326 18.2824 9.66975C18.2858 9.69598 18.2883 9.72115 18.2897 9.74525L18.3119 9.98873L18.3123 9.99178C18.3153 10.0199 18.3173 10.0463 18.3184 10.0708L18.3336 10.2665L18.338 10.3293L18.3526 10.5559Q18.357 10.6005 18.3578 10.6499L18.3679 10.8483L18.3682 10.8531Q18.3703 10.888 18.3708 10.9161L18.3796 11.157L18.3796 11.1973C18.3799 11.2083 18.3803 11.2229 18.3808 11.241Q18.384 11.3495 18.384 11.4074L18.384 11.9555L18.3838 12.0032L18.3799 12.1783L18.3799 12.2215L18.3706 12.4821L18.3696 12.4892L18.3696 12.499L18.3587 12.7143L18.3587 12.7192L18.3435 12.9473C18.3428 12.9561 18.342 12.966 18.3409 12.9771L18.3409 12.9818L18.3262 13.1621Q18.3253 13.1741 18.3238 13.1884L18.3238 13.1959L18.3018 13.422Q18.2996 13.445 18.2951 13.4834L18.2951 13.4837C18.2897 13.5353 18.284 13.5857 18.278 13.6349L18.2714 13.6908L18.27 13.7019L18.2456 13.8889L18.2387 13.9381L18.2187 14.0744C18.2162 14.0924 18.2123 14.1178 18.2071 14.1506L18.1782 14.3284C18.1771 14.3351 18.1756 14.3435 18.1737 14.3534L18.1719 14.3637L18.1579 14.443L18.1441 14.5192L18.139 14.546L18.1333 14.5758L18.1293 14.5969L18.1068 14.7097C18.1032 14.7298 18.0995 14.7484 18.0957 14.7654C18.0876 14.8049 18.0757 14.8603 18.0601 14.9316L18.0465 14.9924L18.0165 15.1218L18.0049 15.1693L17.9648 15.3304L17.962 15.3404C17.9601 15.3473 17.9568 15.36 17.952 15.3783L17.9499 15.3865L17.9207 15.4943Q17.91 15.5348 17.9058 15.549C17.8931 15.5949 17.8765 15.6521 17.856 15.7205Q17.8553 15.7228 17.8497 15.7423L17.8489 15.745L17.8457 15.7565L17.8077 15.8748C17.8044 15.8853 17.7994 15.9014 17.7927 15.9231L17.7861 15.9436L17.7492 16.0552C17.7447 16.0694 17.7386 16.0878 17.7308 16.1104L17.7306 16.111L17.7306 16.1111Q17.7051 16.1858 17.6914 16.2241L17.6733 16.2746L17.6514 16.3348L17.6229 16.4122L17.6112 16.4431L17.5976 16.4787L17.5655 16.5609L17.5483 16.604Q17.5215 16.6711 17.5021 16.7176Q17.4958 16.7336 17.4912 16.7441C17.4767 16.7793 17.4568 16.8259 17.4314 16.884L17.4117 16.9278L17.3686 17.0223L17.3547 17.0528Q17.3193 17.1295 17.2883 17.1933L17.2775 17.2144L17.2675 17.2351L17.226 17.3193L17.2103 17.3501L17.1553 17.4566C17.1479 17.4713 17.1399 17.4863 17.1313 17.5017Q17.1032 17.5549 17.0818 17.5938L17.0672 17.6203Q17.0372 17.6748 17.0036 17.7333C16.9983 17.7428 16.9925 17.7526 16.9864 17.7627C16.9784 17.7768 16.969 17.793 16.9582 17.8113L16.9582 17.8197L16.8894 17.9284C16.8907 17.9258 16.892 17.9231 16.8932 17.9204C16.8711 17.9571 16.8528 17.9864 16.8385 18.0084L16.7973 18.0714C16.7997 18.0685 16.8021 18.0656 16.8045 18.0626L16.775 18.1091L16.7672 18.121C16.7233 18.1897 16.6736 18.2637 16.6182 18.343L16.6131 18.3502C16.5622 18.4239 16.5091 18.497 16.4537 18.5694L16.4552 18.5674C16.1683 18.9472 15.8636 19.2806 15.5411 19.5674C15.6504 19.7618 15.705 19.9794 15.705 20.2204C15.705 20.5068 15.6278 20.7603 15.4733 20.981L15.4775 20.9839Q15.6677 21.1157 15.8439 21.2506L15.8673 21.2683C15.8795 21.2777 15.8963 21.2909 15.9176 21.3078C15.9377 21.3238 15.952 21.335 15.9606 21.3415L15.969 21.3479L16.0066 21.3781C16.042 21.4064 16.0773 21.4351 16.1125 21.4643L16.1375 21.4851C16.2482 21.5762 16.3571 21.6711 16.4641 21.7697L16.4957 21.7986C16.5237 21.8245 16.5542 21.8533 16.5873 21.8851L16.6316 21.9275L16.7187 22.0127L16.7553 22.0496C16.8456 22.1403 16.9375 22.2371 17.031 22.3398L17.0768 22.3904L17.147 22.4701L17.1967 22.5274C17.2008 22.5323 17.207 22.5396 17.2153 22.5493C17.2364 22.5741 17.2532 22.5939 17.2657 22.6089L17.3137 22.6668C17.3169 22.6708 17.322 22.6769 17.3288 22.6851C17.3513 22.7126 17.3692 22.7346 17.3825 22.7513L17.4345 22.8173Q17.4502 22.8376 17.4786 22.8752C17.5011 22.9051 17.5174 22.9263 17.5274 22.939L17.5347 22.9481L17.5918 23.0249C17.5994 23.0352 17.6094 23.0492 17.6217 23.0667L17.629 23.0773C17.6647 23.1227 17.6942 23.1634 17.7175 23.1996C17.7176 23.1997 17.7214 23.2051 17.7291 23.2158C17.739 23.2297 17.7468 23.2408 17.7526 23.2491C17.7607 23.2608 17.7718 23.2771 17.7858 23.298C17.7941 23.3103 17.7997 23.3187 17.8028 23.3231C17.8194 23.3472 17.8367 23.3729 17.8548 23.4002C17.8707 23.4241 17.893 23.4584 17.9216 23.5031Q17.929 23.5148 17.9375 23.5281L17.9818 23.5993C17.9971 23.6228 18.0148 23.6515 18.035 23.6855C18.0401 23.694 18.0415 23.6964 18.0393 23.6929C18.0558 23.7193 18.0729 23.7479 18.0905 23.7787L18.1385 23.8611L18.1389 23.8618L18.1806 23.9336L18.2288 24.0216L18.2691 24.0933C18.2929 24.1373 18.3213 24.192 18.3542 24.2573C18.3582 24.2654 18.3632 24.2757 18.3693 24.2881L18.3672 24.2848C18.3844 24.3171 18.4055 24.3601 18.4306 24.4139L18.4367 24.4271L18.4506 24.4564L18.4674 24.4927C18.4843 24.5292 18.5009 24.5656 18.517 24.6021L18.5464 24.6684C18.5522 24.6817 18.5602 24.7005 18.5704 24.7248C18.5789 24.745 18.5862 24.7622 18.5924 24.7762C18.605 24.8058 18.6139 24.8272 18.6192 24.8404C18.6466 24.907 18.6681 24.9609 18.6838 25.002C18.6874 25.0112 18.6915 25.0219 18.6961 25.0342L18.6985 25.0404C18.7174 25.0898 18.7361 25.1403 18.7545 25.192L18.768 25.2302L18.7739 25.2472C18.7877 25.2861 18.802 25.3278 18.8168 25.3724L18.8402 25.4439L18.8434 25.455C18.8466 25.4656 18.852 25.4833 18.8596 25.5082C18.8669 25.5318 18.8718 25.5477 18.8742 25.5558L18.8927 25.6155C18.8971 25.63 18.9014 25.6445 18.9056 25.6589L19.1088 25.6589ZM16.8045 18.0626L16.8113 18.0519L16.8894 17.9284Q16.8831 17.9418 16.8761 17.9549Q16.8459 18.0117 16.8045 18.0626ZM18.3224 26.4089L18.8098 26.4089L18.8159 26.4147C18.9097 26.4128 19.003 26.4286 19.0902 26.4612C19.1775 26.4939 19.257 26.5428 19.324 26.605C19.3911 26.6672 19.4444 26.7414 19.4808 26.8234C19.5171 26.9054 19.5359 26.9935 19.5359 27.0824C19.5359 27.1713 19.5171 27.2594 19.4808 27.3414C19.4444 27.4233 19.3911 27.4976 19.324 27.5598C19.257 27.622 19.1775 27.6709 19.0902 27.7035C19.003 27.7362 18.9097 27.752 18.8159 27.7501L1.52929 27.7501C1.4355 27.752 1.34224 27.7362 1.25499 27.7035C1.16774 27.6709 1.08824 27.622 1.02118 27.5598C0.954118 27.4976 0.900831 27.4233 0.864453 27.3414C0.828075 27.2594 0.809337 27.1713 0.809337 27.0824C0.809337 26.9935 0.828075 26.9054 0.864453 26.8234C0.900831 26.7414 0.954118 26.6672 1.02118 26.605C1.08824 26.5428 1.16774 26.4939 1.25499 26.4612C1.34224 26.4286 1.4355 26.4128 1.52929 26.4147L2.01704 26.4147C2.02524 26.3771 2.03481 26.3369 2.04233 26.3026C2.04985 26.2682 2.05737 26.2358 2.06523 26.2034C2.07309 26.171 2.08164 26.1386 2.08984 26.1062C2.09599 26.0822 2.10214 26.0586 2.10864 26.0346C2.11753 26.0009 2.12709 25.9662 2.13666 25.9338L2.15512 25.869C2.16538 25.834 2.17597 25.799 2.18691 25.7644C2.19272 25.7456 2.19853 25.7264 2.20468 25.7077C2.21516 25.6707 2.22656 25.6341 2.23886 25.5978C2.24365 25.5829 2.24878 25.5683 2.2539 25.5537C2.26757 25.5132 2.28159 25.473 2.29594 25.4329L2.29594 25.4283C2.34949 25.2808 2.40737 25.1353 2.46957 24.9918C2.47086 24.9893 2.472 24.9867 2.47299 24.9841C3.31579 23.0518 4.93072 21.5141 6.96521 20.7067L5.74192 20.7067C5.54265 20.7067 5.38099 20.489 5.38099 20.2207C5.38099 19.9744 5.51736 19.7725 5.69373 19.7401C5.5242 18.4654 5.09148 13.1174 8.89601 8.44927C8.89601 8.44927 8.80543 8.47487 8.64615 8.52574C7.8508 8.78076 5.07234 10.0102 3.64022 11.5763C3.4875 11.7877 3.36046 12.0147 3.26151 12.2532L1.04189 10.957L0.785889 8.691L6.64529 2.82264L6.33493 0.840156C6.33493 0.840156 16.0235 -0.657233 17.3906 8.56949C17.4041 8.66303 17.4172 8.75581 17.43 8.84784C17.4334 8.87182 17.4364 8.8958 17.4399 8.91978C17.4508 9.001 17.4612 9.0818 17.471 9.16216C17.4723 9.17253 17.4754 9.18355 17.4754 9.19456C17.4863 9.28432 17.4966 9.37278 17.5062 9.46092C17.5089 9.48328 17.5113 9.50532 17.5137 9.52768C17.5216 9.60188 17.5294 9.67544 17.5366 9.74835C17.538 9.76487 17.5414 9.78108 17.5414 9.79728C17.5496 9.88282 17.5574 9.96805 17.5646 10.0523C17.5663 10.0724 17.5694 10.0925 17.5694 10.1126C17.5752 10.1822 17.5803 10.2513 17.5855 10.32L17.5896 10.3773C17.5953 10.4596 17.6005 10.5413 17.6053 10.6223C17.608 10.6401 17.608 10.656 17.608 10.6725C17.6119 10.7399 17.6153 10.8069 17.6183 10.8734C17.619 10.8938 17.621 10.9146 17.621 10.935C17.6241 11.014 17.6272 11.0928 17.6296 11.1706L17.6296 11.2072C17.6313 11.2746 17.634 11.3426 17.634 11.4074L17.634 11.9871C17.6331 12.0515 17.6317 12.1152 17.6299 12.1783L17.6299 12.2081C17.6279 12.2791 17.6251 12.3491 17.6224 12.4188C17.6196 12.4392 17.6196 12.4596 17.6196 12.48L17.6196 12.48C17.6173 12.5364 17.6142 12.5924 17.6111 12.6482C17.6087 12.6618 17.6087 12.6789 17.6087 12.6942L17.6087 12.6942C17.6046 12.7612 17.6002 12.8277 17.5954 12.8938C17.594 12.9129 17.5909 12.932 17.5909 12.9512C17.5872 13.003 17.5827 13.0545 17.5783 13.1057C17.5769 13.1239 17.5738 13.1417 17.5738 13.1595C17.5682 13.2232 17.562 13.2864 17.5554 13.3491C17.5537 13.3666 17.5516 13.3838 17.5496 13.4013C17.5446 13.4501 17.5391 13.4987 17.5332 13.5471C17.5308 13.5665 17.5287 13.5856 17.5263 13.6047C17.5188 13.6657 17.511 13.7256 17.5028 13.7852L17.4966 13.8293C17.4898 13.8773 17.4829 13.9246 17.4758 13.9716C17.473 13.9913 17.4699 14.0108 17.4669 14.0302C17.4578 14.0881 17.4484 14.1456 17.4388 14.2026C17.4371 14.2127 17.4351 14.2227 17.4334 14.2331C17.4248 14.2813 17.4163 14.3303 17.4074 14.3786C17.4036 14.3977 17.4002 14.4168 17.3965 14.4359C17.3876 14.4829 17.3783 14.5299 17.3688 14.5762C17.3667 14.5876 17.3647 14.5983 17.3623 14.6086C17.3513 14.6624 17.3397 14.7152 17.3281 14.7681L17.3158 14.8231C17.3066 14.8643 17.297 14.9051 17.2874 14.9456L17.2772 14.9881C17.2649 15.039 17.2522 15.0892 17.2396 15.1391C17.2348 15.1563 17.2303 15.1734 17.2259 15.1906C17.216 15.2285 17.2057 15.2658 17.1955 15.303C17.1914 15.3186 17.1873 15.3342 17.1828 15.3494C17.1695 15.3977 17.1555 15.4456 17.1415 15.4926C17.137 15.5065 17.1322 15.5234 17.1278 15.5389L17.0936 15.6456C17.0888 15.6605 17.0837 15.677 17.0789 15.6929C17.0642 15.7386 17.0492 15.7842 17.0342 15.829C17.0301 15.8419 17.0256 15.8549 17.0212 15.8678C17.0092 15.9028 16.9972 15.9378 16.9849 15.9722L16.9685 16.0182C16.9528 16.0613 16.9371 16.105 16.921 16.1478L16.9108 16.175C16.8971 16.211 16.8831 16.247 16.8691 16.2826L16.852 16.3254C16.8369 16.363 16.8219 16.4002 16.8065 16.4369C16.8038 16.444 16.8007 16.4514 16.7976 16.4586C16.7812 16.4984 16.7641 16.538 16.747 16.5772L16.7296 16.6161C16.7149 16.6485 16.7002 16.6809 16.6852 16.7133L16.6739 16.7382C16.6558 16.7774 16.6377 16.8163 16.6192 16.8546L16.6028 16.887C16.5878 16.9181 16.5724 16.9492 16.5574 16.9796L16.544 17.0059C16.5249 17.0435 16.5057 17.0804 16.4866 17.117C16.4822 17.1258 16.4774 17.1345 16.4726 17.1429C16.4565 17.1734 16.4405 17.2035 16.424 17.2334L16.4104 17.2583C16.3906 17.2943 16.3704 17.3299 16.3502 17.3649C16.3471 17.3707 16.3437 17.3763 16.3403 17.3818C16.3229 17.4125 16.3048 17.443 16.287 17.4728L16.2737 17.4952C16.2528 17.5299 16.232 17.5655 16.2108 17.5979C16.2084 17.5995 16.2084 17.6021 16.2084 17.6021L16.1469 17.6993L16.1352 17.7171C16.0922 17.7845 16.0484 17.849 16.0047 17.9116L15.9958 17.9242C15.9518 17.9879 15.907 18.0496 15.8615 18.1092L15.8567 18.1154C15.2551 18.9119 14.6488 19.3454 14.3042 19.5489C14.2772 19.6183 14.2523 19.6799 14.2297 19.7343L14.5941 19.7343C14.7933 19.7343 14.955 19.9517 14.955 20.2204C14.955 20.489 14.7933 20.7064 14.5941 20.7064L13.3708 20.7064C13.433 20.731 13.4945 20.756 13.5557 20.7819L13.5701 20.7881C13.802 20.8864 14.0281 20.9944 14.2482 21.1121L14.2663 21.1218C14.3077 21.1442 14.349 21.1666 14.3904 21.1896L14.3955 21.1928C14.5261 21.2658 14.6542 21.3422 14.78 21.4219L14.7865 21.4258C14.8244 21.4501 14.8624 21.4744 14.9 21.4993L14.9243 21.5152C14.9612 21.5395 14.9977 21.5642 15.0343 21.5891L15.0504 21.6004C15.1659 21.6805 15.2804 21.7638 15.3922 21.8493L15.4089 21.8619C15.4421 21.8875 15.4732 21.9131 15.5074 21.9391L15.5388 21.9643C15.5705 21.9896 15.6019 22.0152 15.6331 22.0411L15.6608 22.0641C15.762 22.1474 15.8615 22.2343 15.9582 22.3234L15.9865 22.3493C16.0142 22.3749 16.0416 22.4008 16.0689 22.4271L16.1075 22.464L16.1862 22.5408L16.2238 22.5787C16.3095 22.6649 16.3933 22.7534 16.475 22.8431L16.5143 22.8866L16.5806 22.9617L16.625 23.0129C16.6462 23.0379 16.6674 23.0625 16.6883 23.0875L16.7334 23.1419C16.7535 23.1665 16.774 23.1912 16.7939 23.2161L16.8407 23.2754C16.8742 23.3188 16.9056 23.3619 16.9398 23.405L16.988 23.4698C17.0054 23.4935 17.0236 23.5207 17.0396 23.5411C17.0557 23.5615 17.0721 23.5826 17.0871 23.6059C17.1022 23.6293 17.1199 23.6529 17.1363 23.6766C17.1528 23.7002 17.1695 23.7258 17.1849 23.7482C17.2003 23.7705 17.2153 23.7929 17.2303 23.8156C17.2543 23.8516 17.2775 23.8882 17.3008 23.9245L17.35 24.0035C17.3695 24.0327 17.3859 24.0615 17.4036 24.091C17.4166 24.1118 17.4296 24.1338 17.4423 24.1558C17.4583 24.183 17.474 24.2103 17.4898 24.2375L17.5274 24.3023L17.5756 24.3901L17.6097 24.4507C17.635 24.4974 17.66 24.5463 17.6842 24.5946C17.6914 24.6088 17.6979 24.6231 17.7051 24.637C17.7246 24.6736 17.7413 24.7106 17.7588 24.7478C17.7683 24.7679 17.7779 24.7884 17.7871 24.8084C17.8022 24.8408 17.8169 24.8733 17.8312 24.9057L17.8589 24.9682C17.8736 25.0019 17.888 25.0375 17.9023 25.0699C17.9102 25.0884 17.918 25.1069 17.9256 25.1257C17.9467 25.1772 17.9676 25.2287 17.9874 25.2806C17.9912 25.29 17.9943 25.299 17.998 25.3084C18.0149 25.3525 18.0313 25.3969 18.0472 25.4416C18.0537 25.4601 18.0606 25.4792 18.0671 25.498C18.0797 25.5336 18.092 25.5696 18.104 25.6056C18.1105 25.6257 18.1173 25.6458 18.1238 25.6662C18.1347 25.7034 18.1467 25.7407 18.158 25.7783L18.1744 25.8311C18.1908 25.8858 18.2065 25.9406 18.2215 25.9957L18.2257 26.0103C18.2393 26.0612 18.2527 26.1121 18.2653 26.1629C18.2697 26.1811 18.2742 26.1992 18.2783 26.2174C18.2879 26.2559 18.2971 26.2948 18.3056 26.334L18.319 26.3936C18.32 26.3985 18.3224 26.4037 18.3224 26.4089Z" fill="rgb(231,219,208)" fill-opacity="0" fill-rule="evenodd" />
</svg>
